<svg xmlns:xlink="http://www.w3.org/1999/xlink" xmlns="http://www.w3.org/2000/svg" viewBox="0 0 319.99 103.55" width="319.99"  height="103.55" >
            <defs>
                <style>.cls-3 {
                        fill: #fff;
                    }</style>
            </defs>
            <g id="Calque_2" data-name="Calque 2">
                <g id="Calque_1-2" data-name="Calque 1">
                    <polygon class="cls-3" points="89.53 25.94 89.53 22.66 89.53 22.41 89.53 19.6 89.53 18.05 89.53 18.04 89.53 0 78.13 0 78.13 19.42 78.12 26.6 78.13 26.57 78.13 26.62 78.12 26.6 78.13 32.14 78.13 39.76 77.75 39.76 75.06 39.76 70.3 39.76 64.84 39.76 64.27 39.76 64.27 44.86 64.27 50.8 72.24 50.8 78.22 50.8 78.22 55.27 78.22 59.9 78.22 88.04 78.22 89.36 78.22 89.36 78.22 96.07 78.22 101.81 95.74 101.81 101.8 101.81 101.8 96.33 101.8 91.05 101.54 91.05 99.56 91.05 97.72 91.05 89.62 91.05 89.62 90.91 89.62 88.56 89.62 67.38 89.62 63.8 89.62 60 89.62 57.23 89.62 52.11 89.62 50.9 90.13 50.9 93.17 50.9 97.31 50.9 106.84 50.9 106.84 39.76 89.53 39.76 89.53 25.94" fill="#FFFFFF"></polygon>
                    <path class="cls-3" d="M287.44,38.33A32.11,32.11,0,1,0,320,70.44,32.34,32.34,0,0,0,287.44,38.33Zm-.21,52.53a20.51,20.51,0,1,1,20.6-20.51A20.5,20.5,0,0,1,287.23,90.86Z" fill="#FFFFFF"></path>
                    <path class="cls-3" d="M26.08,78.06l14.06-5.33,12.8-4.85.1,0,1.39-.53,7.86-3S55.78,38,33.26,38a35,35,0,0,0-8.82,1.1h0c-.45.11-.9.23-1.34.36A32.56,32.56,0,0,0,2.67,58.24,33.32,33.32,0,0,0,.08,68.71C0,69.37,0,70,0,70.63c0,6.06,2.38,13.31,7,19.45A35,35,0,0,0,11.34,95a35.37,35.37,0,0,0,3.08,2.53,31.73,31.73,0,0,0,18.84,6,31.88,31.88,0,0,0,4.86-.65c1.06-.22,2.25-.51,3.5-.89A33.94,33.94,0,0,0,47,99.75a24.85,24.85,0,0,0,7.76-5.93l-6.73-7.95s-6.95,5.74-15.68,5.74a20.5,20.5,0,0,1-17-9.49L26,78.1Zm-14-7.36a26.78,26.78,0,0,1,1.51-7.93c2.11-6,7.15-13.11,19.24-13.11.39,0,.76,0,1.13.06A16.19,16.19,0,0,1,36,50,19,19,0,0,1,47.4,57.61l-2.35.87L43.72,59,23,66.65Z" fill="#FFFFFF"></path>
                    <path class="cls-3" d="M217,78.15l14-5.32L243.81,68l.06-.11,0,.07,1.39-.52,7.87-3s-6.52-26.39-29-26.39a35.86,35.86,0,0,0-8.81,1.1h0l-1.33.37a32.54,32.54,0,0,0-20.41,18.82A33,33,0,0,0,191,68.81c-.05.65-.08,1.3-.08,1.93,0,6.05,2.38,13.3,7,19.44a33.78,33.78,0,0,0,4.39,4.87,32.61,32.61,0,0,0,3.08,2.53A28.53,28.53,0,0,0,229,102.89c1.07-.22,2.25-.51,3.51-.89a34.21,34.21,0,0,0,5.39-2.15,25,25,0,0,0,7.76-5.94l-6.73-8s-6.95,5.74-15.67,5.74a20.48,20.48,0,0,1-17-9.51l10.65-4Zm-14-7.35a26.54,26.54,0,0,1,1.52-7.94c2.1-6,7.14-13.11,19.24-13.11.39,0,.76,0,1.13.06a17.74,17.74,0,0,1,2.07.26,19,19,0,0,1,11.37,7.63l-2.36.87-1.33.5-20.71,7.68Z" fill="#FFFFFF"></path>
                    <path class="cls-3" d="M121.44,23.76A7.42,7.42,0,0,0,126,25.37a7.21,7.21,0,0,0,4.87-1.9A7.5,7.5,0,0,0,126,10.36a7.32,7.32,0,0,0-5.79,2.88A7.49,7.49,0,0,0,121.44,23.76Z" fill="#FFFFFF"></path>
                    <polygon class="cls-3" points="131.95 63.22 131.95 63.22 131.95 62.14 131.95 62.14 131.95 57.76 131.95 48.85 131.95 46.83 131.95 39.83 124.02 39.83 121.84 39.83 112.77 39.83 109.1 39.83 109.1 40.41 109.1 42.96 109.1 50.87 118.26 50.87 120.1 50.87 120.58 50.87 120.58 51.33 120.58 52.96 120.58 89.4 120.58 89.41 120.58 91.17 120.14 91.17 109.1 91.17 109.1 98.55 109.1 101.88 118.03 101.88 127.67 101.88 129.23 101.88 129.25 101.88 138.52 101.88 143.54 101.88 143.54 98.38 143.54 91.06 131.95 91.06 131.95 63.22" fill="#FFFFFF"></polygon>
                    <path class="cls-3" d="M189.74,81.43v-.21a.33.33,0,0,0,0-.12c0-.27-.07-.44-.07-.44h0c0-.09-.23-1.1-.32-1.4-.13-.45-.28-.89-.44-1.31a15.06,15.06,0,0,0-.73-1.65c-2.95-5.72-9.15-8.65-14-10.61-1.65-.67-3.14-1.23-4.3-1.76-5.86-2.65-8.05-4.3-8.05-8a5.2,5.2,0,0,1,.54-2.39c1.09-2.24,3.85-3.46,7.62-3.46h.44c4.65.07,6.74,1.31,6.74,1.31v8h10.27V45.41A14,14,0,0,0,183,41.68,19.84,19.84,0,0,0,179.05,40a28.54,28.54,0,0,0-3.66-.84,31.69,31.69,0,0,0-6-.39,25.24,25.24,0,0,0-5.74.63,16.24,16.24,0,0,0-9.84,6.31,20.16,20.16,0,0,0-3.51,9.57,14,14,0,0,0-.11,1.71,16.89,16.89,0,0,0,1.54,7.34c1.89,4,5.33,6.53,9,8.26,4.1,1.94,8.5,2.89,11.33,3.84a13.4,13.4,0,0,1,2.2,1,8.46,8.46,0,0,1,3.09,2.85,2.49,2.49,0,0,0,.15.28v0a5.3,5.3,0,0,1,.91,3.11v0a7.57,7.57,0,0,1-.85,3.43,7.43,7.43,0,0,1-.78,1.22,8.2,8.2,0,0,1-3,2.29,14.25,14.25,0,0,1-5.46,1.15c-.29,0-.55,0-.85,0a29.09,29.09,0,0,1-3.85-.29,11.29,11.29,0,0,1-4.39-1.33l-.32-.23V82.66H148.39V96.51a6.4,6.4,0,0,0,.71.85c1.54,1.6,6,4.94,16.27,5.58.54,0,1.12,0,1.69.06s1.11,0,1.71,0c.94,0,1.83,0,2.69-.11,13.29-1.1,17.56-10.31,18.37-17.83a14.74,14.74,0,0,0,0-1.49v-.08l.08-.08h-.08A12.4,12.4,0,0,0,189.74,81.43Z" fill="#FFFFFF"></path>
                </g>
            </g>
        </svg>