<svg xmlns:xlink="http://www.w3.org/1999/xlink" viewBox="0 0 55.93 21.42" xmlns="http://www.w3.org/2000/svg" width="120"  height="46" >
                    <defs>
                        <style>.cls-logo-1 {
                                fill: #ec6608
                            }

                            .cls-logo-2 {
                                fill: #fff
                            }

                            .cls-logo-3 {
                                fill: #fff
                            }</style>
                    </defs>
                    <title>WEB-ID</title>
                    <g id="Calque_2" data-name="Calque 2" fill="#EC6608">
                        <g id="FOND" fill="#EC6608">
                            <g fill="#EC6608">
                                <polygon class="cls-logo-1" points="47.72 9.48 44.99 4.74 47.72 0 53.2 0 55.93 4.74 53.2 9.48 47.72 9.48" fill="#EC6608"></polygon>
                                <g fill="#EC6608">
                                    <rect class="cls-logo-2" height="5.83" width="0.6" x="47.97" y="1.82" fill="#FFFFFF"></rect><path class="cls-logo-2" d="M53.79,3.62h0c0-.1-.07-.19-.11-.28a2.1,2.1,0,0,0-.13-.26,1.37,1.37,0,0,0-.13-.2.9.9,0,0,0-.15-.19,2.37,2.37,0,0,0-.86-.63,2.7,2.7,0,0,0-.57-.18,3.24,3.24,0,0,0-.64-.06h-2V7.65h2.31a2,2,0,0,0,.35-.06l.21-.06.22-.08.18-.08.19-.11.1-.06a.53.53,0,0,0,.11-.09L53.07,7l.14-.14.14-.16.12-.16c0-.06.07-.13.1-.18a1.51,1.51,0,0,0,.11-.22c0-.06,0-.13.08-.2a2.65,2.65,0,0,0,.15-.57A4,4,0,0,0,54,4.73,3.54,3.54,0,0,0,53.79,3.62ZM51.2,2.42h.26l.37.06a1.76,1.76,0,0,1,.3.1l.13.06.15.09.1.06.07.05.11.1.09.09a2.17,2.17,0,0,1,.42.72,3.25,3.25,0,0,1,.15.89v.07a3.87,3.87,0,0,1-.15,1,3.52,3.52,0,0,1-.17.39,2.75,2.75,0,0,1-.23.33l-.14.15-.14.11a1.63,1.63,0,0,1-.38.22l-.14,0L50.12,2.42Zm.21,4.63H49.85V3.32Z" fill="#FFFFFF"></path>
                                </g>
                                <path class="cls-logo-3" d="M14.65,18.69l-2.74-6.26,2.28-5.19L14.75,6H7.27l2.84,6.47L7.39,18.69,1.93,6.22,1.83,6H0L6.41,20.63l.34.79H8l3-6.85,3,6.85h1.26L22.08,6H20.25ZM12.2,7.63,11,10.35,9.82,7.63Z" fill="#FFFFFF"></path><polygon class="cls-logo-3" points="30.73 10.93 25.06 10.93 25.06 7.63 33.74 7.63 33.74 5.96 23.39 5.96 23.39 12.6 27.84 12.6 23.09 20.76 22.82 21.33 33.93 21.33 33.93 19.66 25.63 19.66 30.73 10.93" fill="#FFFFFF"></polygon>
                                    <path class="cls-logo-3" d="M45.57,16.3c0-.22-.1-.42-.16-.62l0-.14a3.2,3.2,0,0,0-.26-.6,3.48,3.48,0,0,0-.34-.51,5.5,5.5,0,0,0-.43-.51,4.11,4.11,0,0,0-.51-.44l-.19-.13a4.36,4.36,0,0,0,.75-.89l0,0,.07-.13a.93.93,0,0,0,.1-.21A4.36,4.36,0,0,0,45,10.16a4.62,4.62,0,0,0-.18-1.22l0-.13a1.31,1.31,0,0,1-.05-.15c0-.06,0-.13-.08-.2a1.89,1.89,0,0,0-.11-.25,3.67,3.67,0,0,0-.26-.48,2.19,2.19,0,0,0-.3-.4A2.12,2.12,0,0,0,43.68,7a2.6,2.6,0,0,0-.45-.37l-.44-.26a4,4,0,0,0-.47-.21A2.63,2.63,0,0,0,41.75,6l-.42,0h-6.1v6.67h1.66v-5h3.25a4.89,4.89,0,0,1,1.75.15l.13.07.16.08.18.13.17.14.18.19c.07.09.17.21.25.33L43.1,9a.61.61,0,0,1,.07.17l.12.41c0,.12,0,.23,0,.34a2.64,2.64,0,0,1,0,.29,2.53,2.53,0,0,1-.18.94c0,.08-.06.16-.09.22s-.08.16-.13.24a2,2,0,0,1-.25.36c-.13.13-.25.26-.34.33l-.42.27a1.91,1.91,0,0,1-.89.21h-.89l-.06.13-4.89,8.46h.15v0h6.11a3.49,3.49,0,0,0,1.13-.17l.24-.08.26-.12.34-.17,0,0,.44-.32a2.26,2.26,0,0,0,.45-.42A3.84,3.84,0,0,0,45,19.2a2.91,2.91,0,0,0,.17-.3l.1-.22a4,4,0,0,0,.15-.4l.09-.32a3.62,3.62,0,0,0,.13-.91A3.69,3.69,0,0,0,45.57,16.3ZM44,17.16v.05c0,.15,0,.31-.06.43s-.09.26-.12.34l-.08.19a2.25,2.25,0,0,1-.3.48l0,.05-.16.18,0,0L43,19l-.12.11-.12.08a.56.56,0,0,1-.15.1l-.25.14a2.06,2.06,0,0,1-.93.2H37.9L41,14.4h.64a1.27,1.27,0,0,1,.39,0,1.59,1.59,0,0,1,.33.09l.16.06a.67.67,0,0,0,.12.06h0l.27.17.2.19.17.16a3.28,3.28,0,0,1,.27.38l.08.13.19.41a.42.42,0,0,1,0,.1l.05.21A2.62,2.62,0,0,1,44,17Z" fill="#FFFFFF"></path>
                            </g>
                        </g>
                    </g>
                </svg>