<svg xmlns:xlink="http://www.w3.org/1999/xlink" viewBox="0 0 39.52 34.22" xmlns="http://www.w3.org/2000/svg" width="92"  height="80" >
                    <defs>
                        <style>.cls-1 {
                                fill: #ec6608
                            }

                            .cls-2 {
                                fill: #fff
                            }</style>
                    </defs>
                    <title>WEB-ID</title>
                    <g fill="#FFFFFF">
                        <polygon class="cls-1" points="9.88 34.23 0 17.11 9.88 0 29.64 0 39.52 17.11 29.64 34.23 9.88 34.23" fill="#EC6608"></polygon>
                        <g fill="#FFFFFF">
                            <rect class="cls-2" height="21.04" width="2.17" x="10.79" y="6.58" fill="#FFFFFF"></rect>
                            <path class="cls-2" d="M31.77,13.06h0c-.11-.34-.24-.67-.38-1a9.4,9.4,0,0,0-.48-1q-.21-.36-.45-.72t-.54-.69A9,9,0,0,0,26.8,7.43a9.46,9.46,0,0,0-2.07-.66,13.6,13.6,0,0,0-2.29-.19h-7V27.64h7.05c.44,0,.88,0,1.29-.05A7.55,7.55,0,0,0,25,27.36l.74-.2a5,5,0,0,0,.79-.3c.22-.09.44-.19.65-.3s.45-.23.7-.38l.35-.22a4.43,4.43,0,0,0,.41-.3c.19-.15.37-.3.54-.46s.33-.31.5-.48l.48-.59c.16-.2.3-.39.44-.59A6.43,6.43,0,0,0,31,22.9a6.51,6.51,0,0,0,.4-.79c.1-.24.2-.49.29-.73a9.66,9.66,0,0,0,.55-2.05,16.21,16.21,0,0,0,.16-2.25A12.64,12.64,0,0,0,31.77,13.06ZM22.44,8.74h.46l.46,0A12,12,0,0,1,24.69,9a5.22,5.22,0,0,1,1.1.35l.49.23.54.3.34.22.27.21c.13.11.25.21.37.33a4,4,0,0,1,.35.36,7.15,7.15,0,0,1,1.49,2.59,11.48,11.48,0,0,1,.56,3.21V17l0,.08a13.67,13.67,0,0,1-.57,3.47A8.32,8.32,0,0,1,29,21.93a6.18,6.18,0,0,1-.83,1.19c-.16.18-.33.35-.5.52a4.65,4.65,0,0,1-.48.42,7,7,0,0,1-1.39.78,5.38,5.38,0,0,1-.51.2L18.53,8.74Zm.74,16.7c-.25,0-.49,0-.74,0H17.57V12Z" fill="#FFFFFF"></path>
                        </g>
                    </g>
                </svg>